<?xml version="1.0" standalone="no"?><!DOCTYPE svg PUBLIC "-//W3C//DTD SVG 1.1//EN" "http://www.w3.org/Graphics/SVG/1.1/DTD/svg11.dtd"><svg t="1508907769144" class="icon" style="" viewBox="0 0 1024 1024" version="1.1" xmlns="http://www.w3.org/2000/svg" p-id="2105" xmlns:xlink="http://www.w3.org/1999/xlink" width="200" height="200"><defs><style type="text/css"></style></defs><path d="M514.031 900.587L135.016 537.873a260.402 260.402 0 0 1-32.347-42.55 258.532 258.532 0 0 1-22.815-47.896c-10.06-28.319-15.179-70.808-15.179-100.107 0-143.041 116.358-228.32 259.4-228.32 72.01 0 139.912 54.724 188.529 106.18C561.204 173.725 629.123 119 701.133 119c143.025 0 259.383 85.279 259.383 228.32 0 28.801-4.941 70.84-14.665 98.727-6.21 17.746-14.376 34.881-24.324 50.895a261.098 261.098 0 0 1-28.672 37.98l-2.037 2.053L514.03 900.587z" fill="#d81e06" p-id="2106"></path></svg>