<?xml version="1.0" standalone="no"?><!DOCTYPE svg PUBLIC "-//W3C//DTD SVG 1.1//EN" "http://www.w3.org/Graphics/SVG/1.1/DTD/svg11.dtd"><svg t="1508835659931" class="icon" style="" viewBox="0 0 1069 1024" version="1.1" xmlns="http://www.w3.org/2000/svg" p-id="6500" xmlns:xlink="http://www.w3.org/1999/xlink" width="208.7890625" height="200"><defs><style type="text/css"></style></defs><path d="M785.515675 49.843665c-107.536756 0-201.542128 61.246061-250.681406 150.97856-48.427132-89.732499-143.14496-150.97856-251.393552-150.97856-156.675724 0-283.440718 127.477139-283.440718 284.865319 0 74.777135 28.486439 142.432504 75.48928 193.708218l435.131423 437.267859c7.121765 6.409619 15.66751 9.970347 24.213566 9.970347 8.546056 0 17.091801-3.560727 24.213566-9.970347l435.131423-437.267859c46.290385-50.563568 74.777135-118.931394 74.777135-193.708218C1068.956393 177.320805 942.191399 49.843665 785.515675 49.843665L785.515675 49.843665zM940.054962 482.126507 534.834269 893.756509 129.613576 482.126507c-36.320349-38.456785-58.397479-90.444645-58.397479-147.417522 0-118.218938 95.429663-213.648912 212.224621-213.648912 94.717518 0 176.616417 62.670352 205.102856 148.841813 7.121765 18.516402 25.637857 32.047476 46.290696 32.047476 21.364984 0 39.168931-12.818928 47.002841-31.335331l0 0c27.774293-86.883918 108.961047-149.554269 203.678565-149.554269 117.506793 0 212.224621 95.429663 212.224621 213.648912C998.452131 391.681862 976.375312 443.669721 940.054962 482.126507L940.054962 482.126507z" p-id="6501" fill="#000000"></path></svg>